<?xml version="1.0" encoding="utf-8"?>
<!-- Generator: Adobe Illustrator 19.0.0, SVG Export Plug-In . SVG Version: 6.00 Build 0)  -->
<svg version="1.1" id="Capa_1" xmlns="http://www.w3.org/2000/svg" xmlns:xlink="http://www.w3.org/1999/xlink" x="0px" y="0px"
	 viewBox="65 123.1 725.6 595.8" style="enable-background:new 65 123.1 725.6 595.8;" xml:space="preserve">
<style type="text/css">
	.st0{fill:#FFB6B6;}
	.st1{fill:#3F3D56;}
	.st2{fill:#2F2E41;}
	.st3{fill:#F2F2F2;}
	.st4{fill:#E16E6C;}
	.st5{fill:#FFFFFF;}
	.st6{fill:#CCCCCC;}
</style>
<path class="st0" d="M612.3,466c2.3,30.3,1.8,58.7-3.7,83.6l80.9-0.1l36.6-25.5c-10-33.6-16.8-39.3-9.3-62.7L612.3,466z"/>
<path class="st1" d="M613.3,464.4c2.3,19.8-6.3,30.3-11.8,46.6v0c16-10.2,43.4-9.7,62-5.7l58,12.7c-10-21.9-11.3-41.3-3.8-56.6
	L613.3,464.4L613.3,464.4z"/>
<path class="st2" d="M724.2,514.6l26.7,66.1c8.7,21.4,12.2,44.6,10.4,67.6l-5.6,70.6h-80.3c0,0-4.1-17.3-1-16.3c3.1,1-4-3.7-0.5-7.9
	s-1.2-19.8-1.2-19.8s-5.1,17.9-12.6,44h-88.3c7.4-48.2,15.4-106,11.2-110c-7.2-6.9,0.3-4.7,7.7-11.4c7.5-6.7,5.3-11.9,1.3-15.8
	c-3.9-3.9,1.6-5.4,5.1-8.9c3.5-3.5,12.2-45.6,12.2-45.6c0.1,0,3,0.3,3,0.3c2,2,14.3,6,43,6c25,0,63.1-16,67.8-18.4
	C723.9,514.8,724.2,514.6,724.2,514.6L724.2,514.6z"/>
<g>
	<path class="st3" d="M149.9,124.2c-4.4,0-8,3.6-8,8c0,4.4,3.6,8,8,8h180.3c4.4,0,8-3.6,8-8s-3.6-8-8-8
		C330.2,124.2,149.9,124.2,149.9,124.2z"/>
	<path class="st3" d="M149.9,283.1c-4.4,0-8,3.6-8,8s3.6,8,8,8h180.3c4.4,0,8-3.6,8-8s-3.6-8-8-8H149.9z"/>
	<path class="st3" d="M184,177.2c-4.4,0-8,3.6-8,8s3.6,8,8,8h301.6c4.4,0,8-3.6,8-8s-3.6-8-8-8H184z"/>
	<path class="st3" d="M184,230.1c-4.4,0-8,3.6-8,8s3.6,8,8,8h301.6c4.4,0,8-3.6,8-8s-3.6-8-8-8H184z"/>
	<circle class="st3" cx="103.1" cy="132.2" r="6"/>
	<circle class="st3" cx="103.1" cy="291.2" r="6"/>
	<circle class="st3" cx="140.1" cy="185.2" r="6"/>
	<circle class="st3" cx="140.1" cy="238.2" r="6"/>
	<path class="st3" d="M77.7,138.3l-2.4-0.3c0.2-0.8,0.4-1.7,0.5-2.4c0.6-3.6,0.8-7.3,0.4-11c-0.1-1.3-1.6-2-2.6-1.1l-5.2,4.8
		c-1.4,1.3,0.7,3.4,2.1,2.1c0.9-0.9,1.9-1.7,2.8-2.6c0,1.7,0,3.3-0.2,5c-0.1,1.3-0.3,2.6-0.6,3.9c-0.1,0.3-0.1,0.7-0.3,0.9
		c-0.4,0-0.8-0.1-1.3-0.1c-1.4-0.2-1.8,1.7-1.1,2.6c0.8,0.9,2.1,1.1,3.2,0.7l4.7,0.5c0.8,0.1,1.5-0.8,1.5-1.5
		C79.2,138.9,78.5,138.3,77.7,138.3z M71.9,138C71.8,138,71.8,138,71.9,138C71.8,138,71.8,138,71.9,138z"/>
	<path class="st3" d="M78.5,191.9c-1.4-0.1-2.8-0.2-4.1-0.3c2.6-2.4,4.5-5.6,4.8-9.1c0.2-2.5-0.8-5.4-3.3-6.5
		c-2.4-1.1-5.4-0.2-6.3,2.4c-1,2.8,1.7,5.7,4.6,4.8c1.8-0.6,1.1-3.5-0.8-2.9c-0.4,0.1-1-0.1-1-0.7c0-0.6,0.5-1.1,1-1.2
		c2.1-0.5,2.9,2.2,2.8,3.7c-0.3,3.9-3.5,7.5-6.8,9.3c-1.4,0.7-0.6,2.7,0.8,2.8c2.8,0.2,5.6,0.4,8.4,0.7c0.8,0.1,1.5-0.7,1.5-1.5
		C80,192.5,79.3,191.9,78.5,191.9L78.5,191.9z"/>
	<path class="st3" d="M79.1,237.1c1.2-1.3,1.5-3.3,0.9-4.9c-0.6-1.9-2.3-3.2-4.2-3.7c-2.1-0.5-4.2,0.1-5.9,1.2
		c-1.6,1-0.1,3.6,1.5,2.6c1.7-1,4.3-1.5,5.6,0.4c0.4,0.7,0.5,1.7-0.1,2.4c-0.2,0.2-0.3,0.3-0.5,0.4c-0.7-0.2-1.4-0.3-2.1-0.3
		c-1.5,0-2,2-0.8,2.8c0.8,0.5,1.7,0.7,2.6,0.6c1.5,0.8,2.3,2.6,1.6,4.3c-0.9,2.3-3.9,2.8-5.7,1.1c-1.4-1.4-3.5,0.8-2.1,2.1
		c1.6,1.6,3.9,2.2,6.1,1.8c2.1-0.4,3.8-2,4.5-4C81.5,241.4,80.7,238.8,79.1,237.1L79.1,237.1z"/>
	<path class="st3" d="M79.7,290.5c0.3-2.8,0.6-5.6,0.9-8.4c0.1-0.8-0.7-1.5-1.5-1.5c-0.9,0-1.4,0.7-1.5,1.5l-0.9,8.3
		c-2.8,0-5.6,0.1-8.4,0.1c0,0,0,0,0,0l0,0l0.4-0.6c0.2-0.4,0.4-0.7,0.6-1.1L72,284c0.9-1.7-1.6-3.2-2.6-1.5c-1,1.8-2.1,3.7-3.1,5.5
		c-0.5,0.9-1.2,1.9-1.3,2.9c-0.1,1.1,0.7,2.1,1.8,2.4c0.9,0.3,1.8,0.2,2.7,0.2l3.1,0c1.3,0,2.5,0,3.8,0c-0.2,2.3-0.5,4.5-0.7,6.8
		c-0.1,0.8,0.7,1.5,1.5,1.5c0.9,0,1.4-0.7,1.5-1.5c0.2-2.3,0.5-4.6,0.7-6.9C80.8,293.1,80.9,291,79.7,290.5z M67.7,290.5
		C67.6,290.5,67.6,290.4,67.7,290.5L67.7,290.5z"/>
</g>
<path class="st0" d="M778.2,473.3l-27.9-103.4c-2.5-9.1-11.8-14.5-21-12.2h0c-9.6,2.5-15.2,12.5-12.2,21.9l32.3,106.5l16.9,65.6
	c-4.7,3.6-7,9.7-5.4,15.7c2.1,8.1,10.3,12.9,18.3,10.9c8.1-2.1,12.9-10.3,10.9-18.3c-0.8-2.9-2.3-5.5-4.4-7.4L778.2,473.3
	L778.2,473.3z"/>
<path class="st0" d="M543.2,451l84.9-65.3c7.5-5.8,8.9-16.5,3.3-24v0c-5.9-7.9-17.3-9.3-24.9-2.9l-86.1,70.6L466.2,470
	c-5.1-2.9-11.6-2.8-16.6,1c-6.7,5-8,14.4-3,21.1s14.4,8,21.1,3c2.4-1.8,4.1-4.2,5.1-6.9L543.2,451z"/>
<path class="st4" d="M684.6,312.8h-39.1l-16.8,28.8l-8-0.4c-8.3-0.5-15.9,2.6-21.4,7.9c-2.8,2.6,0,9.5-6.6,9.3
	c-7.9-0.1-17.5,15.5-15,23.6v44c12.6-0.5,23.2-20.7,23-37c0,0-18.2,27,7.2,42.2c0,0-4.5,50.5,0,50.2s6.8,2.6,0.7,5.2
	c-11,4.6,3.2,10.1,4.6,11.5c0.9,0.9,1.4,1.4,1.4,1.4c14-28.4,67,12.4,110.7,23.3c5-3.8,7-12.1-2-19.2c-8.5-6.7,3.2-21.3,6.4-19
	c3.1,2.3-12.7-17.3-10.4-26.6c2.3-9.3,5.8-5.8,2.3-9.3c-3.5-3.5,14.7-21.4,4-38.1l8.6,34.3c-5.8,1.1-6.2,3.1-4.4,7.2
	c0.6,1.4,3.9,1.9,3.9,8s3.8-2.2,1.9,1.4c-1.9,3.6,2,1.1,3.1,1.6c14.1,4.6,25.7,0.4,36-8c0.7-1.9,7.1-8.7,2.6-6.8s-4.5-1.9,0.5-2.5
	s-0.6-3.1-0.9-4.9c-0.6-3.2-2.1-6.4-7.1-4.7c-2.7-16.8-4.4-41.2-13.1-49.5c0-4.3-4.7-31-10.9-30c-6.1,1-3.3-3.5-5.3-5.1
	c-9-7.2-22.1-11.9-31.7-11.9h-2.1L684.6,312.8L684.6,312.8z"/>
<path class="st2" d="M696.1,296c-28.4,7.4-57.8,10.5-69.8,26.7c0,0,14.5-27.2-0.4-27.1c-25,0.2,2.6-45.9,11.9-51.5
	c15.5-9.3,52.2-2.9,52.2-2.9l18.3,22.9L696.1,296L696.1,296z"/>
<circle class="st0" cx="665.8" cy="263" r="40.3"/>
<path class="st2" d="M685.1,254.3l-1.2,6.9l-27.4-4.7c1-2.6,1-5.5-0.3-8c-0.5,2.7-1.6,5.2-3.3,7.4c-16.7,2-17,5-27.1-1.5
	c-3.4-0.6-5.6-3.8-5.1-7.2v0c3.6-21.1,10.4-41.4,31.6-38.3c11,1.7,20.2,7.7,26.2,16.1C684.3,233.3,687,243.7,685.1,254.3z"/>
<path class="st2" d="M668.6,276.9c3.8-22-11-42.8-32.9-46.6c-2.7-0.5-5.4-0.6-8-0.6c3.8-4.3,9.1-7.3,15-8.1l33.3-0.5
	c15.2,2.6,41,2.8,47.4,15.6c6,11.8-5,25.4,0,37.6c5.4,13.4,1.5,24.9-3.8,30.3c-6.2,6.2-16.5,13.8-25.1,12.9c0.7-2.8,0.4-5.8-0.9-8.3
	c-0.5,2.7-1.5,5.4-3,7.7l-61.7,17.7c5.9-2,13.6-10.1,20.7-20c4.2-5.8,14.1-4.4,11.4-18.4S667.8,281.7,668.6,276.9L668.6,276.9z"/>
<path class="st5" d="M555.1,485.7h-253c-12.7,0-23-10.3-23-23v-181c0-12.7,10.3-23,23-23h253c12.7,0,23,10.3,23,23v181
	C578.1,475.4,567.8,485.7,555.1,485.7L555.1,485.7z"/>
<path class="st1" d="M555.1,485.7h-253c-12.7,0-23-10.3-23-23v-181c0-12.7,10.3-23,23-23h253c12.7,0,23,10.3,23,23v181
	C578.1,475.4,567.8,485.7,555.1,485.7L555.1,485.7z M416,260.7c-74.5,0-134.9,60.4-134.9,134.9v67.1c0,11.6,9.4,21,21,21h253
	c11.6,0,21-9.4,21-21v-181c0-11.6-9.4-21-21-21H416L416,260.7z"/>
<g>
	<g>
		<path class="st6" d="M366,419.4h-40c-2.2,0-4-1.8-4-4s1.8-4,4-4h40c2.2,0,4,1.8,4,4S368.2,419.4,366,419.4z"/>
		<path class="st6" d="M453,448.7H326c-2.2,0-4-1.8-4-4s1.8-4,4-4h127c2.2,0,4,1.8,4,4S455.2,448.7,453,448.7z"/>
	</g>
	<circle class="st4" cx="472.2" cy="358.7" r="63"/>
	<path class="st5" d="M459.3,334.6c-0.8,0-1.7,0.2-2.4,0.7c-1.4,0.8-2.2,2.3-2.2,4v38.9c0,1.6,0.8,3.1,2.2,4
		c1.4,0.8,3.1,0.9,4.5,0.2l37.9-19.4c1.6-0.8,2.5-2.4,2.5-4.1s-0.9-3.3-2.5-4.1l-37.9-19.4C460.7,334.8,460,334.6,459.3,334.6
		L459.3,334.6z"/>
</g>
</svg>
