<?xml version="1.0" encoding="utf-8"?>
<!-- Generator: Adobe Illustrator 19.0.0, SVG Export Plug-In . SVG Version: 6.00 Build 0)  -->
<svg version="1.1" id="Capa_1" xmlns="http://www.w3.org/2000/svg" xmlns:xlink="http://www.w3.org/1999/xlink" x="0px" y="0px"
	 viewBox="112 98.1 820.3 645.8" style="enable-background:new 112 98.1 820.3 645.8;" xml:space="preserve">
<style type="text/css">
	.st0{fill:#3F3D56;}
	.st1{fill:#FFFFFF;}
	.st2{fill:#E6E6E6;}
	.st3{fill:#9D82DD;}
	.st4{fill:#FFB6B6;}
	.st5{fill:#2F2E41;}
	.st6{opacity:0.1;enable-background:new    ;}
	.st7{fill:#A0616A;}
</style>
<g>
	<path class="st0" d="M327.1,389.6c-1.8,0-3.3,1.5-3.3,3.3V419c0,1.8,1.5,3.3,3.3,3.3s3.3-1.5,3.3-3.3v-26.2
		C330.4,391,328.9,389.6,327.1,389.6z"/>
	<path class="st1" d="M699.5,98.1H405c-33.4,0-60.5,27.1-60.5,60.5V679c0,33.4,27.1,60.5,60.5,60.5h294.5
		c33.4,0,60.5-27.1,60.5-60.5V158.6C760,125.2,732.9,98.1,699.5,98.1z"/>
	<path class="st0" d="M699.5,743.9H405c-34.1,0-61.9-27.8-61.9-61.9V161.6c0-34.1,27.8-61.9,61.9-61.9h294.5
		c34.1,0,61.9,27.8,61.9,61.9V682C761.4,716.1,733.7,743.9,699.5,743.9L699.5,743.9z M405,102.6c-32.6,0-59,26.5-59,59V682
		c0,32.6,26.5,59,59,59h294.5c32.6,0,59-26.5,59-59V161.6c0-32.6-26.5-59-59-59C699.5,102.6,405,102.6,405,102.6z"/>
	<path class="st2" d="M720.9,224.9H602.5c-5,0-9.1-4.1-9.1-9.1s4.1-9.1,9.1-9.1h118.4c5,0,9.1,4.1,9.1,9.1S725.9,224.9,720.9,224.9z
		"/>
	<path class="st3" d="M609.8,296.5H494.8c-2.9,0-5.3-2.4-5.3-5.3c0-2.9,2.4-5.3,5.3-5.3h115.1c2.9,0,5.3,2.4,5.3,5.3
		S612.7,296.5,609.8,296.5L609.8,296.5z"/>
	<path class="st2" d="M381.4,120.7h66c0.2,0,0.3,0.1,0.3,0.3v7.9c0,0.2-0.1,0.3-0.3,0.3h-66c-0.2,0-0.3-0.1-0.3-0.3V121
		C381.1,120.8,381.2,120.7,381.4,120.7z"/>
	<circle class="st2" cx="668.5" cy="122.4" r="6.8"/>
	<circle class="st2" cx="687.2" cy="122.4" r="6.8"/>
	<circle class="st2" cx="706" cy="122.4" r="6.8"/>
	<path class="st0" d="M404.3,324.7c0,0.9,0.8,1.7,1.7,1.7h292.5c0.9,0,1.7-0.8,1.7-1.7c0-0.9-0.8-1.7-1.7-1.7H406
		C405.1,323,404.3,323.7,404.3,324.7z"/>
	<path class="st0" d="M636.3,565.7c0,0.9,0.8,1.7,1.7,1.7h292.5c0.9,0,1.7-0.8,1.7-1.7c0-0.9-0.8-1.7-1.7-1.7H638
		C637.1,564,636.3,564.7,636.3,565.7L636.3,565.7z"/>
	<path class="st3" d="M670.5,458.6H495c-2.9,0-5.3-2.4-5.3-5.3c0-2.9,2.4-5.3,5.3-5.3h175.5c2.9,0,5.3,2.4,5.3,5.3
		S673.4,458.6,670.5,458.6L670.5,458.6z"/>
	<circle class="st3" cx="441.7" cy="452.7" r="12.9"/>
	<path class="st0" d="M440.3,474.2v-2.9c10.7,0,19.3-8.7,19.3-19.3s-8.7-19.3-19.3-19.3v-2.9c12.2,0,22.2,10,22.2,22.2
		S452.5,474.2,440.3,474.2z"/>
	<path id="uuid-9e40be56-d004-4de8-84cd-e8041855938b-388" class="st4" d="M286.8,400.7c5.3-5.3,12.3-7,15.7-3.6
		c3.4,3.3,1.9,10.4-3.4,15.7c-2.1,2.2-4.6,3.8-7.5,4.8L269.1,440l-10.3-10.8l23.3-20.9C283.1,405.4,284.7,402.8,286.8,400.7
		L286.8,400.7z"/>
	<path class="st2" d="M214.6,382.3l23.7,52.5l37.8-20.4l13.5,7.2c0,0-30.9,51.6-52,45.7s-58.7-59.2-51.9-75.6
		C192.4,375.2,214.6,382.3,214.6,382.3L214.6,382.3z"/>
	<path class="st0" d="M112,742.1c0,0.7,0.5,1.2,1.2,1.2h729.3c0.7,0,1.2-0.5,1.2-1.2c0-0.7-0.5-1.2-1.2-1.2H113.2
		C112.5,740.9,112,741.5,112,742.1z"/>
	<ellipse class="st3" cx="330.3" cy="422.1" rx="64.9" ry="63.5"/>
	<g>
		<polygon class="st4" points="204.3,732 221.5,732 229.7,665.4 204.3,665.4 		"/>
		<path class="st5" d="M263.4,731.6L263.4,731.6c0.5,0.9,0.8,3.8,0.8,4.9l0,0c0,3.2-2.6,5.9-5.9,5.9h-53.4c-2.2,0-4-1.8-4-4v-2.2
			c0,0-2.6-6.7,2.8-14.9c0,0,6.8,6.5,16.9-3.7l3-5.4l21.6,15.8l12,1.5C259.7,729.7,262,729.3,263.4,731.6L263.4,731.6z"/>
	</g>
	<polygon class="st4" points="217.3,385.6 217.7,362.4 203.3,353.4 187.7,372.5 	"/>
	<polygon class="st6" points="217.3,385.6 218.2,362.9 203.3,353.4 208.4,381.5 	"/>
	<path class="st5" d="M252.2,539.4l-23.8,161.7h-29.8l4-92.3l2.1-48.5l-6.1-23.1c0,0-2.8-5.1-5.1-11.4c-2.6-7-4.7-15.4-1.6-19.4
		c1.1-1.5,4.1-2.6,8.1-3.4c2.4-0.5,5.3-0.9,8.3-1.2c17.6-1.7,42.7-0.7,42.7-0.7l0.6,21L252,534L252.2,539.4L252.2,539.4z"/>
	<g>
		<polygon class="st4" points="173.9,724.1 190.9,726.6 208.7,661.9 183.6,658.2 		"/>
		<path class="st5" d="M232.4,732.3L232.4,732.3c0.4,1,0.3,3.9,0.1,4.9l0,0c-0.5,3.2-3.4,5.4-6.6,4.9l-52.8-7.8
			c-2.2-0.3-3.7-2.3-3.4-4.5l0.3-2.2c0,0-1.6-7,4.9-14.4c0,0,5.8,7.4,17.2-1.2l3.7-4.9l19,18.7l11.6,3.2
			C229,729.9,231.4,729.8,232.4,732.3L232.4,732.3L232.4,732.3z"/>
	</g>
	<path class="st5" d="M252.5,512.5l-3.3,28.1l-17.8,59.2l-29.3,97.4l-29.5-4.3l26.5-138.5l-2.6-23.7c0,0-0.9-2.4-1.8-5.8
		c-1.9-6.8-4.4-18-1.7-23.6c0.4-0.8,0.8-1.4,1.4-2c1.1-1,3.2-1.6,6.1-2c12-1.4,36.7,2.5,47.7,4.4L252.5,512.5L252.5,512.5z"/>
	<path class="st2" d="M191,367.6l29,13.9c0,0,30.7,91,30.7,95.6s8.7,7.5,3.5,12.8c-5.2,5.2,9.7,9.6,1.7,13.8
		c-8,4.2-58.2,27-63.8,24.9c-15.4-5.7,0.7-26.5,0.7-26.5s-11.6-9.3-9.8-13.9c1.7-4.6-10.4-93.3-10.4-93.3S191,367.6,191,367.6z"/>
	<g>
		<path id="uuid-73aedec7-8a7b-498d-9bbc-62d5085a8040-389" class="st4" d="M279.3,447.8c7.2-2.1,14.1-0.1,15.5,4.4
			s-3.4,10-10.6,12.1c-2.9,0.9-5.9,1.1-8.8,0.6l-30.6,8.6l-3.7-14.4l30.6-7C273.8,450.1,276.4,448.6,279.3,447.8L279.3,447.8z"/>
		<path class="st2" d="M225.2,396.6l-4.8,57.4l42.9,0.5l8.3,12.8c0,0-52.1,30.1-67.7,14.7s-22.6-80.2-8.7-91.3
			S225.2,396.6,225.2,396.6L225.2,396.6z"/>
	</g>
	<g>
		<circle class="st4" cx="216.7" cy="344.3" r="24.8"/>
		<path class="st5" d="M203.3,344.4c0,0,3.9-6.5,6.1-9.8c2.2-3.3,2.2-8.2,2.2-8.2s19.9-0.4,26.6,5.3c6.6,5.7,11.3-15.2,4.9-22.5
			c0,0-2.7,3.1-2.2,4.3l0.6,1.2c0,0-3.3-13.3-12.9-15.8c0,0-5.3,2.8-3.8,4.3s-11.4-9.4-15.3-2.9c0,0-9.6-0.2-8.4,3.3l-0.6,2.2
			c0,0-8.2-2.5-8.8,3.5c0,0,2.9,0,4.5,1.6c1.6,1.6-5.7,6.1-5.7,6.1s-8.4,23.1,2.9,32.5c0,0,0.1-11.2,4.6-8.5
			C202.4,343.5,203.3,344.4,203.3,344.4z"/>
		<g>
			<polygon class="st5" points="226.9,359 226.1,361.4 232.7,361.6 233.2,359.4 			"/>
			<path class="st5" d="M233.6,350.6c0,0-10-2.7-16,5.5l-1.3,1.6c0,0-12.7-14.3-11.6-19.5l-2.7,0.2l-2.7,13.7
				c0,0,8.5,14.7,20.3,15.2c0,0,11.4,2.7,13.8-2s6.7-11.6,6.7-11.6L233.6,350.6z M231.8,363.7h-6.6c-1.6,0-5.6-5.7-5.6-5.7
				c2.2-3.5,8.9-3.7,8.9-3.7h7.3l0.5,2.2L231.8,363.7L231.8,363.7z"/>
		</g>
	</g>
	<g>
		<polygon class="st7" points="717.6,733.9 706.7,731.5 710.6,688.3 726.7,691.8 		"/>
		<path class="st5" d="M680.3,725.5L680.3,725.5c-0.5,0.5-1,2.3-1.2,3l0,0c-0.4,2,0.9,4.1,2.9,4.5l33.8,7.3c1.4,0.3,2.8-0.6,3.1-2
			l0.3-1.4c0,0,2.6-3.9,0.3-9.8c0,0-5.2,3.2-10.2-4.6l-1.1-3.8l-15.8,7l-7.8-0.7C682.9,724.8,681.5,724.3,680.3,725.5L680.3,725.5
			L680.3,725.5z"/>
	</g>
	<g>
		<polygon class="st7" points="698.1,730.6 689,724.1 709.6,685.9 723,695.5 		"/>
		<path class="st5" d="M667.1,708.2L667.1,708.2c-0.6,0.3-1.9,1.7-2.3,2.3l0,0c-1.2,1.7-0.8,4.1,0.9,5.3l28.2,20
			c1.2,0.8,2.8,0.6,3.6-0.6l0.8-1.2c0,0,3.9-2.5,4.1-8.9c0,0-6,0.9-7.5-8.2l0.4-4l-17.3,0.2l-6.9-3.7
			C669.7,708.6,668.6,707.5,667.1,708.2L667.1,708.2z"/>
	</g>
	<path class="st5" d="M829.1,517.1c0,0,17,23.1-17,49L742.9,544l24.7-51.6l21.9-12L829.1,517.1L829.1,517.1z"/>
	<polyline class="st5" points="742.9,544 716.1,596.3 699.1,705.1 720.3,706.5 741.5,603.3 778.9,547.5 752.8,535.5 	"/>
	<path class="st5" d="M812.2,549.7v16.4l-48.1,52.8c0,0,0,39.6-18.4,57.9l-21.2,32.5l-18.4-9.9l26.9-94.7l48.1-62.2L812.2,549.7z"/>
	<path class="st7" d="M778,386.8l7.3,34.5l27.8-6.8c0,0-13.7-28.6-11-39.9L778,386.8z"/>
	<path class="st6" d="M778,386.8l7.3,34.5l27.8-6.8c0,0-13.7-28.6-11-39.9L778,386.8z"/>
	<path class="st2" d="M804.4,392.1l-21.2,9.9c0,0-10.9,6.7-11.1,11.1c-0.2,4.4,1.2,25.6,1.2,25.6s-8.5,8.5-2.8,25.4l-2.8,28.3
		l63.6,33.9l-5.7-59.4l2.8-55.1L804.4,392.1L804.4,392.1z"/>
	<g>
		<path id="uuid-8e851e4b-a66f-4616-8a31-24a5e3f3093d-390" class="st7" d="M823.4,552.9c-2.5,5.7-7.4,9-11.1,7.5
			c-3.6-1.6-4.5-7.5-2.1-13.2c1-2.3,2.5-4.3,4.4-5.9l10.8-24l11.2,5.3l-11.9,23.1C824.9,548.1,824.4,550.6,823.4,552.9L823.4,552.9z
			"/>
		<path class="st2" d="M812.2,415.4c0,0,15.5-9.9,21.2,1.4c5.7,11.3,18.4,69.3,18.4,69.3l-18.4,55.1l-17-7.1l14.8-59.3L812.2,415.4
			L812.2,415.4z"/>
	</g>
	<g>
		<path id="uuid-35301953-803a-439b-9845-5bf97a98fdf5-391" class="st7" d="M732.5,544c-4.4,4.4-10.2,5.7-13,2.9
			c-2.8-2.8-1.5-8.6,2.9-13c1.7-1.8,3.9-3.1,6.2-3.9l18.9-18.3l8.4,9.1l-19.5,17.1C735.6,540.1,734.3,542.3,732.5,544L732.5,544z"/>
		<path class="st2" d="M772.7,412c0,0,27.1-1.1,28.2,11.5c1.1,12.6-17.4,68.8-17.4,68.8L746,536.7l-13.2-12.8l35.6-49.7L772.7,412
			L772.7,412z"/>
	</g>
	<g>
		<path class="st3" d="M850.9,561.2l-173.3-28c-2.9-0.5-4.8-3.2-4.4-6s3.2-4.8,6-4.4l173.3,28c2.9,0.5,4.8,3.2,4.4,6
			S853.8,561.7,850.9,561.2z"/>
		<circle class="st3" cx="626" cy="519" r="12.9"/>
		<path class="st0" d="M621.2,540l0.5-2.8c10.5,1.7,20.5-5.5,22.2-16c1.7-10.5-5.5-20.5-16-22.2l0.5-2.8
			c12.1,1.9,20.3,13.4,18.4,25.4C644.7,533.7,633.3,541.9,621.2,540L621.2,540z"/>
	</g>
	<g>
		<circle class="st7" cx="780.8" cy="372.8" r="21.3"/>
		<path class="st5" d="M793.4,372.8c0,0-13.3-12.1-21.9-7.8s-12.8,7.1-12.8,7.1s-7.1-10.7,3.6-19.9c0,0-21.7-9.5-5.9-24.3
			s30.1-9.1,30.1-9.1s19.2,8.5,5.7,25.6c0,0,19.7,12.5,9.5,32.9c0,0-1-13-3.8-9.4S793.4,372.8,793.4,372.8L793.4,372.8z"/>
	</g>
	<path class="st1" d="M352.6,446c-8.2-20.1-16.3-40.1-24.5-60.2c-1.1-2.8-4.7-2.9-5.8,0c-8.1,21-13.3,43-15.9,65.4
		c-0.4,3.8,5.5,3.8,6,0c1-8.8,2.5-17.4,4.4-26c6.7,0.4,13.5-0.4,20-2.2c3.3,8.2,6.7,16.4,10,24.7C348.3,451.1,354.1,449.6,352.6,446
		z M318.2,419.2c2-8.2,4.4-16.4,7.2-24.4l9.2,22.5C329.2,418.7,323.7,419.4,318.2,419.2L318.2,419.2z"/>
</g>
<circle class="st1" cx="364.1" cy="445" r="6"/>
<circle class="st1" cx="301.1" cy="392" r="6"/>
</svg>
