<?xml version="1.0" encoding="utf-8"?>
<!-- Generator: Adobe Illustrator 19.0.0, SVG Export Plug-In . SVG Version: 6.00 Build 0)  -->
<svg version="1.1" id="Capa_1" xmlns="http://www.w3.org/2000/svg" xmlns:xlink="http://www.w3.org/1999/xlink" x="0px" y="0px"
	 viewBox="45 135.9 685.6 570" style="enable-background:new 45 135.9 685.6 570;" xml:space="preserve">
<style type="text/css">
	.st0{fill:#FFFFFF;}
	.st1{fill:#E6E6E6;}
	.st2{fill:#CD843C;}
	.st3{fill:#CCCCCC;}
	.st4{fill:#C5803E;}
	.st5{fill:#3F3D56;}
	.st6{fill:#A0616A;}
	.st7{fill:#B67A40;}
	.st8{fill:#2F2E41;}
	.st9{fill:#BD7D3F;}
</style>
<path class="st0" d="M498.5,601.9H89v-466h409.5V601.9z"/>
<path class="st1" d="M498.5,601.9H89v-466h409.5V601.9z M95,596.3h397.5V141.5H95V596.3z"/>
<rect x="89.6" y="135.9" class="st2" width="409" height="59.6"/>
<circle class="st1" cx="148.3" cy="249.1" r="34.8"/>
<rect x="211.1" y="224.5" class="st1" width="119.3" height="10.2"/>
<rect x="211.1" y="249.1" class="st1" width="262.9" height="10.2"/>
<rect x="211.1" y="273.7" class="st1" width="262.9" height="10.2"/>
<circle class="st1" cx="148.3" cy="534.1" r="34.8"/>
<rect x="211.1" y="509.5" class="st1" width="119.3" height="10.2"/>
<rect x="211.1" y="534.1" class="st1" width="262.9" height="10.2"/>
<rect x="211.1" y="558.7" class="st1" width="262.9" height="10.2"/>
<rect x="102.2" y="151.1" class="st0" width="51.9" height="7.5"/>
<rect x="102.2" y="164.1" class="st0" width="51.9" height="7.5"/>
<rect x="102.2" y="177.1" class="st0" width="51.9" height="7.5"/>
<path class="st0" d="M542.4,457.8H45V325.3h497.4V457.8z"/>
<path class="st3" d="M542.4,457.8H45V325.3h497.4V457.8z M51,451.8h485.4V331.3H51V451.8z"/>
<circle class="st4" cx="106.7" cy="391.4" r="34.4"/>
<rect x="179" y="362.4" class="st5" width="142.4" height="10.1"/>
<rect x="179" y="386.7" class="st5" width="313.9" height="10.1"/>
<rect x="179" y="411" class="st5" width="313.9" height="10.1"/>
<path class="st6" d="M622,492.8c0.4-0.2,0.9-0.3,1.3-0.4l15.2-39.5l-6.4-8l10.8-11.3c3.1,4.6,18.6,14.3,13.9,21.2l-23.6,41.9
	c2.4,4.3,0.9,9.8-3.4,12.2c-0.6,0.3-1.3,0.6-1.9,0.8C617.3,512.9,611.8,496.7,622,492.8z"/>
<path class="st7" d="M636.4,452.7c-2.7,0.8-13-15.2-14.7-16.6c-4.3-4-4.5-10.8-0.4-15.1c4-4.3,10.7-4.5,15-0.5l15.8,11.1
	c1.7,1.2,2.1,3.6,0.9,5.4c-0.1,0.1-0.2,0.3-0.3,0.4C650.8,438.7,639.1,453.7,636.4,452.7z"/>
<polygon class="st6" points="641.8,692.8 629.5,692.8 627.7,645.5 641.8,645.5 "/>
<path class="st8" d="M644.9,704.7l-39.5,0c-0.4-20.9,26.4-15.2,39.5-15.9L644.9,704.7z"/>
<polygon class="st6" points="681.7,688.7 669.5,690.2 658.3,643.9 676.2,641.8 "/>
<path class="st8" d="M686.2,700.2l-39.3,4.6c-2.8-20.7,24.4-18.2,37.4-20.3L686.2,700.2z"/>
<path class="st8" d="M644,681.6h-20.2v-76L612,542.1l-16.1-56.4l37.8-18.4l7.2,11.3c1.1,1,19.2,17.7,21.1,34.3
	c2,16.9-17.2,162-18,168.1L644,681.6z"/>
<path class="st8" d="M597.3,497.6l-6.2-27.3c-1.5-1.4-15.3-15.6,0-33.7l8.1-21l23.6-7.3l9.2,7.1c7.5,5.8,11.7,15,11.1,24.6
	l-2.5,38.6L597.3,497.6z"/>
<path class="st6" d="M617.5,363.1c24.3,13.8,4.4,50.4-20.4,37.4C572.8,386.6,592.7,350.1,617.5,363.1z"/>
<path class="st6" d="M550.6,412.3c0.1,0.5,0.1,1,0.1,1.5l38.1,25.8l10.1-4.9l9.3,14.2c-5.6,2.2-19.7,16.1-25.8,9.5l-38.6-35.3
	c-5.2,1.5-10.6-1.5-12.1-6.6c-0.2-0.7-0.3-1.5-0.4-2.3C530.5,402.4,549,400.5,550.6,412.3z"/>
<path class="st9" d="M589.5,437.3c-0.2-3.1,19.3-10,21.2-11.5c5.3-3.5,12.5-2.1,16.1,3.3c3.5,5.3,2.1,12.5-3.2,16l-15.6,14
	c-1.7,1.5-4.4,1.4-5.9-0.4c-0.1-0.1-0.2-0.3-0.3-0.4C600.7,456,587.8,440,589.5,437.3z"/>
<path class="st8" d="M660.1,666.5l-25-62.7l16.7-24l36.6,84.5L660.1,666.5z"/>
<path class="st3" d="M729.6,705.9h-165c-0.6,0-1-0.4-1-1s0.4-1,1-1h165c0.6,0,1,0.4,1,1S730.2,705.9,729.6,705.9z"/>
<path class="st8" d="M682.7,381.3c-8.1,1.5-16.6-1-23.6-5.4c-7-4.4-12.6-10.7-17.5-17.3c-2.8-3.7-5.5-7.6-9.3-10.3
	s-9.1-3.9-13.1-1.6c-3.6,2-5.2,7.2-3.1,10.5c-5.6-1.4-11.6-1-17.3,0.2c-5.5,1.2-11.1,3.2-14.9,7.3c-3.8,4.1-5.2,10.8-2,15.5l4.8,0.8
	c8.7-2,12.7-1.1,21.4,0.9c-0.3-1.5,2.1-2.4,3.3-1.4s0.8,2.9,1.6,4.3c3.4,5.8,3.4,12.8,1.6,18.2c8.6-3.6,14.9-13.3,16.7-22.4
	c0.9-4,0.6-8.2-0.9-12c-0.7-1.7-1.7-3.2-2.9-4.6c3.2,0.9,6.2,2.6,8.7,4.8c4.4,3.9,7.7,8.9,11.2,13.6c3.6,4.7,7.7,9.2,13.1,11.5
	c8.4,3.4,18.3,0.4,25.2-5.4c5.4-4.6,9.1-10.6,12.2-17C694.4,376.5,688.9,380.1,682.7,381.3z"/>
<path class="st8" d="M698,371.3c1.1-1.7,1.9-3.5,2.4-5.5C699.6,367.6,698.8,369.5,698,371.3z"/>
</svg>
